<mxfile host="app.diagrams.net" agent="Mozilla/5.0 (Windows NT 10.0; Win64; x64) AppleWebKit/537.36 (KHTML, like Gecko) Chrome/129.0.0.0 Safari/537.36" version="24.8.1">
  <diagram name="Page-1" id="eP_kpQER1eO_HNPgkkCR">
    <mxGraphModel dx="2450" dy="789" grid="1" gridSize="10" guides="1" tooltips="1" connect="1" arrows="1" fold="1" page="1" pageScale="1" pageWidth="850" pageHeight="1100" math="0" shadow="0">
      <root>
        <mxCell id="0" />
        <mxCell id="1" parent="0" />
        <mxCell id="Aw9dBWY5VTlbbTz8rSbx-1" value="SOAR EDR playbook" style="whiteSpace=wrap;html=1;aspect=fixed;" vertex="1" parent="1">
          <mxGeometry x="380" y="40" width="80" height="80" as="geometry" />
        </mxCell>
        <mxCell id="Aw9dBWY5VTlbbTz8rSbx-2" value="Slack" style="rounded=1;whiteSpace=wrap;html=1;fillColor=#f8cecc;strokeColor=#b85450;" vertex="1" parent="1">
          <mxGeometry x="80" y="290" width="120" height="60" as="geometry" />
        </mxCell>
        <mxCell id="Aw9dBWY5VTlbbTz8rSbx-3" value="email" style="rounded=1;whiteSpace=wrap;html=1;fillColor=#d5e8d4;strokeColor=#82b366;" vertex="1" parent="1">
          <mxGeometry x="560" y="290" width="120" height="60" as="geometry" />
        </mxCell>
        <mxCell id="Aw9dBWY5VTlbbTz8rSbx-9" style="edgeStyle=orthogonalEdgeStyle;rounded=0;orthogonalLoop=1;jettySize=auto;html=1;entryX=0;entryY=0.5;entryDx=0;entryDy=0;" edge="1" parent="1" source="Aw9dBWY5VTlbbTz8rSbx-4" target="Aw9dBWY5VTlbbTz8rSbx-8">
          <mxGeometry relative="1" as="geometry" />
        </mxCell>
        <mxCell id="Aw9dBWY5VTlbbTz8rSbx-11" value="Detection (arert)" style="edgeLabel;html=1;align=center;verticalAlign=middle;resizable=0;points=[];" vertex="1" connectable="0" parent="Aw9dBWY5VTlbbTz8rSbx-9">
          <mxGeometry x="-0.2625" y="-2" relative="1" as="geometry">
            <mxPoint as="offset" />
          </mxGeometry>
        </mxCell>
        <mxCell id="Aw9dBWY5VTlbbTz8rSbx-4" value="LimaCharlie" style="rounded=1;whiteSpace=wrap;html=1;fillColor=#dae8fc;strokeColor=#6c8ebf;" vertex="1" parent="1">
          <mxGeometry x="80" y="160" width="120" height="60" as="geometry" />
        </mxCell>
        <mxCell id="Aw9dBWY5VTlbbTz8rSbx-10" style="rounded=0;orthogonalLoop=1;jettySize=auto;html=1;exitX=0;exitY=1;exitDx=0;exitDy=0;entryX=1;entryY=0;entryDx=0;entryDy=0;" edge="1" parent="1" source="Aw9dBWY5VTlbbTz8rSbx-8" target="Aw9dBWY5VTlbbTz8rSbx-2">
          <mxGeometry relative="1" as="geometry" />
        </mxCell>
        <mxCell id="Aw9dBWY5VTlbbTz8rSbx-12" value="send message with details" style="edgeLabel;html=1;align=center;verticalAlign=middle;resizable=0;points=[];" vertex="1" connectable="0" parent="Aw9dBWY5VTlbbTz8rSbx-10">
          <mxGeometry x="0.1351" y="-3" relative="1" as="geometry">
            <mxPoint as="offset" />
          </mxGeometry>
        </mxCell>
        <mxCell id="Aw9dBWY5VTlbbTz8rSbx-13" style="rounded=0;orthogonalLoop=1;jettySize=auto;html=1;entryX=0.5;entryY=0;entryDx=0;entryDy=0;" edge="1" parent="1" source="Aw9dBWY5VTlbbTz8rSbx-8" target="Aw9dBWY5VTlbbTz8rSbx-3">
          <mxGeometry relative="1" as="geometry" />
        </mxCell>
        <mxCell id="Aw9dBWY5VTlbbTz8rSbx-22" style="edgeStyle=orthogonalEdgeStyle;rounded=0;orthogonalLoop=1;jettySize=auto;html=1;entryX=0.5;entryY=0;entryDx=0;entryDy=0;" edge="1" parent="1" source="Aw9dBWY5VTlbbTz8rSbx-8" target="Aw9dBWY5VTlbbTz8rSbx-19">
          <mxGeometry relative="1" as="geometry" />
        </mxCell>
        <mxCell id="Aw9dBWY5VTlbbTz8rSbx-23" value="does the user want to isolate the machine?" style="edgeLabel;html=1;align=center;verticalAlign=middle;resizable=0;points=[];" vertex="1" connectable="0" parent="Aw9dBWY5VTlbbTz8rSbx-22">
          <mxGeometry x="0.1059" y="-2" relative="1" as="geometry">
            <mxPoint as="offset" />
          </mxGeometry>
        </mxCell>
        <mxCell id="Aw9dBWY5VTlbbTz8rSbx-8" value="Tines" style="rounded=1;whiteSpace=wrap;html=1;fillColor=#e1d5e7;strokeColor=#9673a6;" vertex="1" parent="1">
          <mxGeometry x="360" y="160" width="120" height="60" as="geometry" />
        </mxCell>
        <mxCell id="Aw9dBWY5VTlbbTz8rSbx-14" value="send message with details" style="edgeLabel;html=1;align=center;verticalAlign=middle;resizable=0;points=[];" vertex="1" connectable="0" parent="1">
          <mxGeometry x="519.9979673426243" y="260.0025925632446" as="geometry" />
        </mxCell>
        <mxCell id="Aw9dBWY5VTlbbTz8rSbx-17" value="message with details contains:&lt;div&gt;-Time&lt;/div&gt;&lt;div&gt;-Computer name&lt;/div&gt;&lt;div&gt;-Source IP&lt;/div&gt;&lt;div&gt;-Process&lt;/div&gt;&lt;div&gt;-Command Line&lt;/div&gt;&lt;div&gt;-File path&lt;/div&gt;&lt;div&gt;-Sensor ID&lt;/div&gt;&lt;div&gt;-Link to the detection (if applicable)&lt;/div&gt;" style="edgeLabel;html=1;align=left;verticalAlign=middle;resizable=0;points=[];" vertex="1" connectable="0" parent="1">
          <mxGeometry x="629.9979673426243" y="130.0025925632446" as="geometry" />
        </mxCell>
        <mxCell id="Aw9dBWY5VTlbbTz8rSbx-24" style="edgeStyle=orthogonalEdgeStyle;rounded=0;orthogonalLoop=1;jettySize=auto;html=1;entryX=0.5;entryY=0;entryDx=0;entryDy=0;" edge="1" parent="1" source="Aw9dBWY5VTlbbTz8rSbx-19" target="Aw9dBWY5VTlbbTz8rSbx-20">
          <mxGeometry relative="1" as="geometry" />
        </mxCell>
        <mxCell id="Aw9dBWY5VTlbbTz8rSbx-25" style="edgeStyle=orthogonalEdgeStyle;rounded=0;orthogonalLoop=1;jettySize=auto;html=1;entryX=0.5;entryY=0;entryDx=0;entryDy=0;" edge="1" parent="1" source="Aw9dBWY5VTlbbTz8rSbx-19" target="Aw9dBWY5VTlbbTz8rSbx-21">
          <mxGeometry relative="1" as="geometry" />
        </mxCell>
        <mxCell id="Aw9dBWY5VTlbbTz8rSbx-19" value="User prompt" style="rounded=0;whiteSpace=wrap;html=1;" vertex="1" parent="1">
          <mxGeometry x="360" y="390" width="120" height="60" as="geometry" />
        </mxCell>
        <mxCell id="Aw9dBWY5VTlbbTz8rSbx-27" style="edgeStyle=orthogonalEdgeStyle;rounded=0;orthogonalLoop=1;jettySize=auto;html=1;" edge="1" parent="1" source="Aw9dBWY5VTlbbTz8rSbx-20" target="Aw9dBWY5VTlbbTz8rSbx-26">
          <mxGeometry relative="1" as="geometry" />
        </mxCell>
        <mxCell id="Aw9dBWY5VTlbbTz8rSbx-20" value="YES" style="rhombus;whiteSpace=wrap;html=1;fillColor=#d5e8d4;strokeColor=#82b366;" vertex="1" parent="1">
          <mxGeometry x="220" y="500" width="80" height="80" as="geometry" />
        </mxCell>
        <mxCell id="Aw9dBWY5VTlbbTz8rSbx-39" style="edgeStyle=orthogonalEdgeStyle;rounded=0;orthogonalLoop=1;jettySize=auto;html=1;entryX=0.5;entryY=0;entryDx=0;entryDy=0;" edge="1" parent="1" source="Aw9dBWY5VTlbbTz8rSbx-21" target="Aw9dBWY5VTlbbTz8rSbx-38">
          <mxGeometry relative="1" as="geometry" />
        </mxCell>
        <mxCell id="Aw9dBWY5VTlbbTz8rSbx-40" value="&quot;The computer &amp;lt;computer&amp;gt; was not isolated, please investigate&quot;" style="edgeLabel;html=1;align=center;verticalAlign=middle;resizable=0;points=[];" vertex="1" connectable="0" parent="Aw9dBWY5VTlbbTz8rSbx-39">
          <mxGeometry y="-1" relative="1" as="geometry">
            <mxPoint as="offset" />
          </mxGeometry>
        </mxCell>
        <mxCell id="Aw9dBWY5VTlbbTz8rSbx-21" value="NO" style="rhombus;whiteSpace=wrap;html=1;fillColor=#f8cecc;strokeColor=#b85450;" vertex="1" parent="1">
          <mxGeometry x="550" y="500" width="80" height="80" as="geometry" />
        </mxCell>
        <mxCell id="Aw9dBWY5VTlbbTz8rSbx-35" style="edgeStyle=orthogonalEdgeStyle;rounded=0;orthogonalLoop=1;jettySize=auto;html=1;" edge="1" parent="1" source="Aw9dBWY5VTlbbTz8rSbx-26" target="Aw9dBWY5VTlbbTz8rSbx-34">
          <mxGeometry relative="1" as="geometry" />
        </mxCell>
        <mxCell id="Aw9dBWY5VTlbbTz8rSbx-37" value="Isolation status &amp;amp; &quot;The computer &amp;lt;computer&amp;gt; has been isolated&quot;" style="edgeLabel;html=1;align=center;verticalAlign=middle;resizable=0;points=[];" vertex="1" connectable="0" parent="Aw9dBWY5VTlbbTz8rSbx-35">
          <mxGeometry x="-0.04" y="-3" relative="1" as="geometry">
            <mxPoint as="offset" />
          </mxGeometry>
        </mxCell>
        <mxCell id="Aw9dBWY5VTlbbTz8rSbx-26" value="LimaCharlie" style="rounded=1;whiteSpace=wrap;html=1;fillColor=#dae8fc;strokeColor=#6c8ebf;" vertex="1" parent="1">
          <mxGeometry x="200" y="650" width="120" height="60" as="geometry" />
        </mxCell>
        <mxCell id="Aw9dBWY5VTlbbTz8rSbx-29" style="edgeStyle=orthogonalEdgeStyle;rounded=0;orthogonalLoop=1;jettySize=auto;html=1;" edge="1" parent="1" source="Aw9dBWY5VTlbbTz8rSbx-28" target="Aw9dBWY5VTlbbTz8rSbx-4">
          <mxGeometry relative="1" as="geometry" />
        </mxCell>
        <mxCell id="Aw9dBWY5VTlbbTz8rSbx-41" value="detect hack tool" style="edgeLabel;html=1;align=center;verticalAlign=middle;resizable=0;points=[];" vertex="1" connectable="0" parent="Aw9dBWY5VTlbbTz8rSbx-29">
          <mxGeometry x="-0.2429" y="2" relative="1" as="geometry">
            <mxPoint as="offset" />
          </mxGeometry>
        </mxCell>
        <mxCell id="Aw9dBWY5VTlbbTz8rSbx-28" value="infected" style="verticalAlign=top;verticalLabelPosition=bottom;labelPosition=center;align=center;html=1;outlineConnect=0;fillColor=#f8cecc;strokeColor=#b85450;gradientDirection=north;strokeWidth=2;shape=mxgraph.networks.pc;" vertex="1" parent="1">
          <mxGeometry x="-160" y="155" width="100" height="70" as="geometry" />
        </mxCell>
        <mxCell id="Aw9dBWY5VTlbbTz8rSbx-30" value="" style="verticalAlign=top;verticalLabelPosition=bottom;labelPosition=center;align=center;html=1;outlineConnect=0;fillColor=#ffff88;strokeColor=#36393d;gradientDirection=north;strokeWidth=2;shape=mxgraph.networks.pc;" vertex="1" parent="1">
          <mxGeometry x="-10" y="645" width="100" height="70" as="geometry" />
        </mxCell>
        <mxCell id="Aw9dBWY5VTlbbTz8rSbx-32" style="edgeStyle=orthogonalEdgeStyle;rounded=0;orthogonalLoop=1;jettySize=auto;html=1;entryX=1;entryY=0.5;entryDx=0;entryDy=0;entryPerimeter=0;" edge="1" parent="1" source="Aw9dBWY5VTlbbTz8rSbx-26" target="Aw9dBWY5VTlbbTz8rSbx-30">
          <mxGeometry relative="1" as="geometry" />
        </mxCell>
        <mxCell id="Aw9dBWY5VTlbbTz8rSbx-33" value="ISOLATE" style="edgeLabel;html=1;align=center;verticalAlign=middle;resizable=0;points=[];" vertex="1" connectable="0" parent="Aw9dBWY5VTlbbTz8rSbx-32">
          <mxGeometry x="0.2364" y="1" relative="1" as="geometry">
            <mxPoint as="offset" />
          </mxGeometry>
        </mxCell>
        <mxCell id="Aw9dBWY5VTlbbTz8rSbx-34" value="Slack" style="rounded=1;whiteSpace=wrap;html=1;fillColor=#f8cecc;strokeColor=#b85450;" vertex="1" parent="1">
          <mxGeometry x="200" y="810" width="120" height="60" as="geometry" />
        </mxCell>
        <mxCell id="Aw9dBWY5VTlbbTz8rSbx-38" value="Slack" style="rounded=1;whiteSpace=wrap;html=1;fillColor=#f8cecc;strokeColor=#b85450;" vertex="1" parent="1">
          <mxGeometry x="530" y="650" width="120" height="60" as="geometry" />
        </mxCell>
      </root>
    </mxGraphModel>
  </diagram>
</mxfile>
